<?xml version="1.0" encoding="UTF-8" standalone="no"?>
<svg
   xmlns:dc="http://purl.org/dc/elements/1.1/"
   xmlns:cc="http://creativecommons.org/ns#"
   xmlns:rdf="http://www.w3.org/1999/02/22-rdf-syntax-ns#"
   xmlns:svg="http://www.w3.org/2000/svg"
   xmlns="http://www.w3.org/2000/svg"
   xmlns:sodipodi="http://sodipodi.sourceforge.net/DTD/sodipodi-0.dtd"
   xmlns:inkscape="http://www.inkscape.org/namespaces/inkscape"
   height="49.241817mm"
   id="svg2"
   version="1.1"
   viewBox="0 0 660.31933 186.11081"
   width="174.70949mm"
   xml:space="preserve"
   sodipodi:docname="expert.svg"
   inkscape:version="1.0 (4035a4fb49, 2020-05-01)"><sodipodi:namedview
     inkscape:document-rotation="0"
     pagecolor="#ffffff"
     bordercolor="#666666"
     borderopacity="1"
     objecttolerance="10"
     gridtolerance="10"
     guidetolerance="10"
     inkscape:pageopacity="0"
     inkscape:pageshadow="2"
     inkscape:window-width="1920"
     inkscape:window-height="1017"
     id="namedview19"
     showgrid="false"
     inkscape:zoom="1.1849519"
     inkscape:cx="287.43166"
     inkscape:cy="-55.078831"
     inkscape:window-x="-8"
     inkscape:window-y="-8"
     inkscape:window-maximized="1"
     inkscape:current-layer="svg2"
     units="mm"
     fit-margin-top="0"
     fit-margin-left="0"
     fit-margin-right="0"
     fit-margin-bottom="0" /><metadata
     id="metadata8"><rdf:rdf><cc:work
         rdf:about=""><dc:format>image/svg+xml</dc:format><dc:type
           rdf:resource="http://purl.org/dc/dcmitype/StillImage" /></cc:work></rdf:rdf><rdf:RDF><cc:Work
         rdf:about=""><dc:format>image/svg+xml</dc:format><dc:type
           rdf:resource="http://purl.org/dc/dcmitype/StillImage" /><dc:title /></cc:Work></rdf:RDF></metadata><defs
     id="defs6" /><path
     d="m 169.48846,88.465477 c -0.12707,-6.813066 -2.2088,-12.109866 -6.24587,-15.894799 -4.03893,-3.784934 -9.65146,-5.6776 -16.84053,-5.6776 -6.8136,0 -12.20573,1.957333 -16.1808,5.866666 -3.97387,3.912 -6.40573,9.148933 -7.28427,15.705733 z m -46.55147,17.032273 c 0.75614,6.81146 3.40614,12.1104 7.94574,15.89533 4.5428,3.78547 10.0308,5.6776 16.4652,5.6776 5.67546,0 10.43533,-1.16667 14.28746,-3.50253 3.84534,-2.3308 7.22027,-5.26574 10.12387,-8.79854 l 16.27346,12.30107 c -5.29893,6.56146 -11.23066,11.22813 -17.78693,14.00266 -6.562,2.7744 -13.43746,4.16347 -20.62653,4.16347 -6.81307,0 -13.248,-1.13533 -19.30427,-3.40667 -6.05413,-2.27093 -11.29,-5.48866 -15.70573,-9.6516 -4.41712,-4.16146 -7.91712,-9.17759 -10.50255,-15.04279 -2.58645,-5.86614 -3.87812,-12.39427 -3.87812,-19.586406 0,-7.1912 1.29167,-13.7192 3.87812,-19.585867 2.58543,-5.867199 6.08543,-10.881333 10.50255,-15.044799 4.41573,-4.1636 9.6516,-7.3808 15.70573,-9.65 6.05627,-2.2712 12.4912,-3.405867 19.30427,-3.405867 6.3052,0 12.076,1.104 17.31293,3.310534 5.2344,2.2088 9.71467,5.392133 13.43707,9.556266 3.71813,4.163467 6.62186,9.304133 8.70306,15.4228 2.08174,6.120933 3.124,13.152133 3.124,21.100535 v 6.244804 h -69.25933"
     id="path14"
     style="fill:#000000;fill-opacity:1;fill-rule:nonzero;stroke:none;stroke-width:0.133333" /><path
     d="m 377.61125,97.549344 c 0,-3.5312 -0.6,-6.937467 -1.79733,-10.2172 -1.2,-3.2812 -2.96534,-6.180667 -5.29867,-8.707733 -2.336,-2.5204 -5.14133,-4.5396 -8.42133,-6.053733 -3.28134,-1.514 -7.00267,-2.271334 -11.16534,-2.271334 -4.16133,0 -7.884,0.757334 -11.164,2.271334 -3.28133,1.514133 -6.08666,3.533333 -8.42,6.053733 -2.336,2.527066 -4.10133,5.426533 -5.3,8.707733 -1.2,3.279733 -1.796,6.686 -1.796,10.2172 0,3.533866 0.596,6.940136 1.796,10.217736 1.19867,3.2844 2.964,6.1828 5.3,8.70573 2.33334,2.5244 5.13867,4.54214 8.42,6.05574 3.28,1.51453 7.00267,2.2708 11.164,2.2708 4.16267,0 7.884,-0.75627 11.16534,-2.2708 3.28,-1.5136 6.08533,-3.53134 8.42133,-6.05574 2.33333,-2.52293 4.09867,-5.42133 5.29867,-8.70573 1.19733,-3.2776 1.79733,-6.68387 1.79733,-10.217736 z m -75.316,-45.415866 h 21.57467 v 13.624266 h 0.37866 c 3.27734,-5.6776 7.692,-9.745333 13.24534,-12.205733 5.55066,-2.459866 11.54133,-3.6892 17.97733,-3.6892 6.93733,0 13.18,1.229334 18.73333,3.6892 5.55067,2.4604 10.28134,5.838 14.19334,10.123867 3.908,4.290133 6.87333,9.337599 8.892,15.137999 2.01866,5.8048 3.02933,12.0496 3.02933,18.735467 0,6.689066 -1.07333,12.934406 -3.21733,18.733866 -2.14667,5.80467 -5.14134,10.85214 -8.988,15.138 -3.85067,4.29067 -8.48667,7.66613 -13.90934,10.126 -5.424,2.45893 -11.35333,3.6896 -17.788,3.6896 -4.16266,0 -7.91733,-0.4432 -11.25866,-1.3244 -3.34534,-0.8844 -6.27734,-2.01773 -8.8,-3.40733 -2.524,-1.3864 -4.668,-2.8672 -6.43467,-4.44587 -1.768,-1.576 -3.21733,-3.12387 -4.352,-4.638 h -0.568 v 54.6896 h -22.708 V 52.133478"
     id="path16"
     style="fill:#000000;fill-opacity:1;fill-rule:nonzero;stroke:none;stroke-width:0.133333" /><path
     d="m 256.27925,97.54361 34.644,45.41827 h -27.62666 l -20.85467,-27.33027 -20.80707,27.33027 H 194.00779 L 279.90192,30.329479 h 27.62666 L 256.27925,97.54361"
     id="path18"
     style="fill:#000000;fill-opacity:1;fill-rule:nonzero;stroke:none;stroke-width:0.133333" /><path
     d="M 221.64832,52.133478 H 194.01926 L 221.97285,88.828544 235.77259,70.692011 221.64832,52.133478"
     id="path20"
     style="fill:#f47216;fill-opacity:1;fill-rule:nonzero;stroke:none;stroke-width:0.133333" /><g
     aria-label="expert"
     id="text846"
     style="font-style:normal;font-variant:normal;font-weight:normal;font-stretch:normal;font-size:189.136px;line-height:1.25;font-family:EBGaramond;-inkscape-font-specification:EBGaramond;letter-spacing:0px;word-spacing:0px;fill:#000000;fill-opacity:1;stroke:none;stroke-width:4.72839"
     transform="translate(100.22859,30.324138)"><path
       d="m 340.10651,75.119787 q 1.136,10.223981 7.95199,15.903971 6.81599,5.67999 16.47197,5.67999 8.51998,0 14.19997,-3.407994 5.86933,-3.597327 10.22399,-8.89865 l 16.28263,12.306644 q -7.95198,9.845312 -17.7973,14.010642 -9.84531,4.16533 -20.63729,4.16533 -10.22399,0 -19.31197,-3.408 -9.08798,-3.40799 -15.71464,-9.65598 -6.62665,-6.24799 -10.60265,-14.957308 -3.78666,-8.89865 -3.78666,-19.690631 0,-10.79198 3.78666,-19.501298 3.976,-8.898651 10.60265,-15.146639 6.62666,-6.247989 15.71464,-9.655983 9.08798,-3.407994 19.31197,-3.407994 9.46664,0 17.2293,3.407994 7.95198,3.218661 13.44264,9.46665 5.67999,6.247988 8.70932,15.525305 3.21866,9.087984 3.21866,21.015962 v 6.247989 z m 46.57592,-17.039969 q -0.18933,-10.223982 -6.24799,-15.903972 -6.05866,-5.67999 -16.85064,-5.67999 -10.22398,0 -16.28263,5.869323 -5.86933,5.869323 -7.19466,15.714639 z"
       style="font-style:normal;font-variant:normal;font-weight:bold;font-stretch:normal;font-size:189.333px;font-family:'Janna LT';-inkscape-font-specification:'Janna LT, Bold';font-variant-ligatures:normal;font-variant-caps:normal;font-variant-numeric:normal;font-variant-east-asian:normal;stroke-width:4.72839"
       id="path867" /><path
       d="m 430.64908,21.727883 h 22.71996 V 36.11719 h 0.37867 q 3.78666,-7.951985 10.79198,-12.306644 7.00532,-4.354659 16.0933,-4.354659 2.08267,0 3.976,0.378666 2.08266,0.378666 4.16532,0.946665 v 21.962627 q -2.83999,-0.757332 -5.67999,-1.135998 -2.65066,-0.567999 -5.30132,-0.567999 -7.95199,0 -12.87465,3.029328 -4.73332,2.839995 -7.38398,6.626655 -2.46133,3.78666 -3.408,7.57332 -0.75733,3.786659 -0.75733,5.679989 v 48.65858 h -22.71996 z"
       style="font-style:normal;font-variant:normal;font-weight:bold;font-stretch:normal;font-size:189.333px;font-family:'Janna LT';-inkscape-font-specification:'Janna LT, Bold';font-variant-ligatures:normal;font-variant-caps:normal;font-variant-numeric:normal;font-variant-east-asian:normal;stroke-width:4.72839"
       id="path869" /><path
       d="M 493.63484,41.039848 V 21.727883 h 18.74397 V -4.589403 h 22.71996 v 26.317286 h 24.99195 v 19.311965 h -24.99195 v 39.759929 q 0,6.815987 2.46133,10.79198 2.65066,3.975993 10.22398,3.975993 3.02933,0 6.62665,-0.567999 3.59733,-0.757332 5.67999,-2.271996 v 19.122635 q -3.59732,1.70399 -8.89865,2.27199 -5.11199,0.75734 -9.08798,0.75734 -9.08798,0 -14.95731,-2.08267 -5.67999,-1.89333 -9.08798,-5.86932 -3.21866,-4.16533 -4.54399,-10.223982 -1.136,-6.058656 -1.136,-14.010641 V 41.039848 Z"
       style="font-style:normal;font-variant:normal;font-weight:bold;font-stretch:normal;font-size:189.333px;font-family:'Janna LT';-inkscape-font-specification:'Janna LT, Bold';font-variant-ligatures:normal;font-variant-caps:normal;font-variant-numeric:normal;font-variant-east-asian:normal;stroke-width:4.72839"
       id="path871" /></g><path
     d="M 2.2888184e-7,-1.8310547e-7 H 22.719959 V 143.13574 H 2.2888184e-7 Z"
     style="font-style:normal;font-variant:normal;font-weight:bold;font-stretch:normal;font-size:189.333px;line-height:1.25;font-family:'Janna LT';-inkscape-font-specification:'Janna LT, Bold';font-variant-ligatures:normal;font-variant-caps:normal;font-variant-numeric:normal;font-variant-east-asian:normal;letter-spacing:0px;word-spacing:0px;fill:#000000;fill-opacity:1;stroke:none"
     id="path839" /><path
     d="M 54.294192,9.0879835 H 73.606158 V 59.071893 H 54.294192 Z"
     style="font-style:normal;font-variant:normal;font-weight:bold;font-stretch:normal;font-size:189.333px;line-height:1.25;font-family:'Janna LT';-inkscape-font-specification:'Janna LT, Bold';font-variant-ligatures:normal;font-variant-caps:normal;font-variant-numeric:normal;font-variant-east-asian:normal;letter-spacing:0px;word-spacing:0px;fill:#000000;fill-opacity:1;stroke:none"
     id="path841" /></svg>
